<svg xmlns="http://www.w3.org/2000/svg"
    xmlns:xlink="http://www.w3.org/1999/xlink" width="80" zoomAndPan="magnify" viewBox="0 0 67.5 67.5" height="50" preserveAspectRatio="xMidYMid meet" version="1.0">
    <defs>
        <g/>
        <clipPath id="ad5bdd43e1">
            <path d="M 23 1.441406 L 83.742188 1.441406 L 83.742188 65 L 23 65 Z M 23 1.441406 " clip-rule="nonzero"/>
        </clipPath>
        <clipPath id="4a15d20136">
            <path d="M 2.59375 19 L 40 19 L 40 65.464844 L 2.59375 65.464844 Z M 2.59375 19 " clip-rule="nonzero"/>
        </clipPath>
    </defs>
    <g clip-path="url(#ad5bdd43e1)">
        <path fill="#ff9900" d="M 77.042969 25.609375 C 74.195312 22.757812 70.722656 20.757812 66.925781 19.738281 C 66.707031 18.664062 66.414062 17.605469 66.042969 16.582031 C 64.015625 10.84375 59.871094 6.253906 54.386719 3.652344 C 51.292969 2.191406 48.003906 1.449219 44.609375 1.449219 C 42.007812 1.449219 39.453125 1.890625 37.019531 2.761719 L 36.695312 2.875 L 36.65625 2.917969 C 31.109375 4.980469 26.667969 9.074219 24.132812 14.449219 C 23.78125 15.15625 23.496094 15.832031 23.234375 16.496094 C 23.945312 16.4375 24.65625 16.398438 25.375 16.398438 C 27.542969 16.398438 29.746094 16.6875 31.933594 17.242188 C 33.660156 14.113281 36.421875 11.75 39.777344 10.554688 C 41.335938 9.996094 42.96875 9.710938 44.628906 9.710938 C 46.785156 9.710938 48.875 10.183594 50.84375 11.117188 C 54.261719 12.734375 56.859375 15.554688 58.195312 19.070312 C 46.339844 20.097656 41.042969 27.878906 33.882812 38.398438 L 33.777344 38.554688 C 32.214844 40.851562 30.445312 43.453125 28.402344 46.242188 L 26.957031 48.214844 L 29.488281 48.652344 C 30.105469 48.757812 30.871094 48.894531 31.769531 48.894531 C 35.097656 48.894531 38.007812 46.980469 40.664062 43.046875 C 47.351562 33.171875 51.390625 27.214844 60.957031 27.214844 C 64.867188 27.214844 68.503906 28.71875 71.203125 31.457031 C 73.9375 34.195312 75.441406 37.839844 75.441406 41.722656 C 75.441406 45.605469 73.9375 49.253906 71.203125 51.992188 C 68.511719 54.6875 64.777344 56.234375 60.957031 56.234375 C 59.433594 56.234375 57.972656 56.003906 56.570312 55.535156 C 55.167969 55.109375 53.816406 54.445312 52.664062 53.613281 L 51.417969 52.710938 L 46.703125 59.511719 L 47.945312 60.375 C 49.914062 61.742188 52.007812 62.777344 54.164062 63.445312 C 56.410156 64.144531 58.695312 64.496094 60.957031 64.496094 C 67.019531 64.496094 72.734375 62.117188 77.042969 57.800781 C 81.328125 53.507812 83.6875 47.796875 83.6875 41.722656 C 83.6875 35.625 81.328125 29.902344 77.042969 25.609375 Z M 77.042969 25.609375 " fill-opacity="1" fill-rule="nonzero"/>
    </g>
    <g clip-path="url(#4a15d20136)">
        <path fill="#0099ff" d="M 38.425781 24.054688 C 36.484375 22.707031 34.394531 21.675781 32.199219 20.980469 C 29.917969 20.285156 27.621094 19.933594 25.375 19.933594 C 19.355469 19.933594 13.65625 22.296875 9.328125 26.589844 C 5.019531 30.90625 2.644531 36.628906 2.644531 42.703125 C 2.644531 48.777344 5.019531 54.5 9.328125 58.816406 C 13.65625 63.113281 19.355469 65.476562 25.375 65.476562 C 27.621094 65.476562 29.914062 65.125 32.199219 64.429688 C 34.394531 63.734375 36.484375 62.699219 38.425781 61.351562 L 39.671875 60.484375 L 34.90625 53.695312 L 33.667969 54.59375 C 32.496094 55.441406 31.175781 56.101562 29.742188 56.558594 C 28.371094 56.992188 26.902344 57.214844 25.375 57.214844 C 21.578125 57.214844 17.855469 55.667969 15.164062 52.96875 C 12.410156 50.210938 10.890625 46.5625 10.890625 42.703125 C 10.890625 38.84375 12.410156 35.199219 15.164062 32.4375 C 17.855469 29.742188 21.578125 28.195312 25.375 28.195312 C 26.902344 28.195312 28.371094 28.414062 29.742188 28.847656 C 31.175781 29.304688 32.496094 29.96875 33.667969 30.8125 L 34.445312 31.378906 C 36.125 29.019531 37.804688 26.828125 39.59375 24.867188 Z M 38.425781 24.054688 " fill-opacity="1" fill-rule="nonzero"/>
    </g>
</svg>