<?xml version="1.0" encoding="UTF-8"?>
<!-- Uploaded to: SVG Repo, www.svgrepo.com, Generator: SVG Repo Mixer Tools -->
<svg fill="#000000" version="1.1" viewBox="144 144 512 512"
    xmlns="http://www.w3.org/2000/svg">
    <g>
        <path d="m275.38 287.47c0 5.8984-4.793 10.648-10.648 10.648-5.8984 0-10.648-4.75-10.648-10.648 0-5.8438 4.75-10.648 10.648-10.648 5.8555 0 10.648 4.8008 10.648 10.648"/>
        <path d="m310.39 287.47c0 5.8984-4.8008 10.648-10.648 10.648-5.8984 0-10.648-4.75-10.648-10.648 0-5.8438 4.75-10.648 10.648-10.648 5.8477 0 10.648 4.8008 10.648 10.648"/>
        <path d="m345.41 287.47c0 5.8984-4.793 10.648-10.648 10.648-5.8984 0-10.648-4.75-10.648-10.648 0-5.8438 4.75-10.648 10.648-10.648 5.8555 0 10.648 4.8008 10.648 10.648"/>
        <path d="m636.87 517.08c-2.6523-4.1055-7.1367-6.5586-11.996-6.5586h-449.8c-4.832 0-9.2891 2.4297-11.93 6.5117-2.668 4.125-3.0586 9.2539-1.1836 13.344l6.3633 21.625c6.2227 13.73 19.922 22.605 34.91 22.605h393.41c14.988 0 28.688-8.875 35.043-22.953l6.3203-21.094c1.9102-4.3906 1.4883-9.4141-1.1406-13.48m-123.89 37.926c-5.9062 0-10.648-4.7422-10.648-10.648 0-5.8438 4.7422-10.648 10.648-10.648 5.8438 0 10.648 4.8008 10.648 10.648 0 5.9062-4.8008 10.648-10.648 10.648m35.016 0c-5.8984 0-10.648-4.7422-10.648-10.648 0-5.8438 4.75-10.648 10.648-10.648 5.8438 0 10.648 4.8008 10.648 10.648 0 5.9062-4.8008 10.648-10.648 10.648m35.016 0c-5.9062 0-10.648-4.7422-10.648-10.648 0-5.8438 4.7422-10.648 10.648-10.648 5.8438 0 10.645 4.8008 10.645 10.648 0 5.9062-4.8008 10.648-10.645 10.648"/>
        <path d="m602.58 257.69c0-17.855-14.52-32.305-32.379-32.305l-340.44 0.003907c-17.781 0-32.305 14.449-32.305 32.305v247.31l405.12-0.003906zm-33.488 213.82c0 6.9648-5.7031 12.668-12.668 12.668h-312.81c-6.9648 0-12.668-5.7031-12.668-12.668v-150.4c0.89063 0.37109 1.8516 0.51953 2.8164 0.51953h332.52c0.96484 0 1.9258-0.14844 2.8164-0.51953zm0-158.18c0 1.5547-1.2617 2.7422-2.8164 2.7422h-332.51c-1.5547 0-2.8164-1.1836-2.8164-2.7422v-41.859c0-6.9648 5.7031-12.668 12.668-12.668h312.81c6.9648 0 12.668 5.7031 12.668 12.668z"/>
        <path d="m533.16 385.71-4.8906-0.81641c-0.89062-0.14844-1.6289-0.89063-1.9258-1.8516-0.96484-3.2617-2.2969-6.3711-3.8516-9.4102-0.44531-0.89062-0.44531-1.8516 0.074219-2.5938l2.668-3.8516c2.0742-2.9648 1.9258-6.8906-0.29688-9.5586-3.0391-3.7031-6.5195-7.1133-10.371-10.148-2.7422-2.1484-6.668-2.1484-9.4844-0.074219l-3.2617 2.2969c-0.81641 0.59375-1.7773 0.59375-2.7422 0.14844-2.8906-1.5547-5.9258-2.8164-9.0391-3.8516-0.96484-0.29688-1.6289-1.0391-1.7773-1.9258l-0.66797-3.8516c-0.59375-3.4805-3.5547-6.2227-7.1875-6.5938-4.5195-0.51953-9.2617-0.51953-13.855 0-3.6289 0.37109-6.5938 3.1133-7.1875 6.5938l-0.66797 3.8516c-0.14844 0.89062-0.81641 1.6289-1.7773 1.9258-3.1133 1.0391-6.1484 2.2969-9.0391 3.8516-0.89062 0.44531-1.9258 0.44531-2.668-0.14844l-3.3359-2.3711c-2.8906-2.0742-6.8164-2-9.5586 0.074218-3.8516 3.0391-7.3359 6.5195-10.371 10.297-2.1484 2.668-2.2227 6.5195-0.22266 9.4102l2.668 3.9258c0.51953 0.74219 0.51953 1.7031 0.074219 2.668-1.5547 3.0391-2.8164 6.1484-3.7773 9.3359-0.29688 0.96484-1.1094 1.7031-2 1.8516l-4.8164 0.81641c-3.5547 0.66797-6.2969 3.5547-6.668 7.1875-0.22266 2.2969-0.37109 4.668-0.37109 7.0391s0.074219 4.668 0.37109 6.9648c0.37109 3.6289 3.1133 6.5938 6.5938 7.1875l4.9648 0.81641c0.89063 0.22266 1.6289 0.89062 1.9258 1.8516 0.96484 3.2617 2.2227 6.3711 3.7773 9.4102 0.44531 0.89062 0.44531 1.8516-0.074219 2.5938l-2.668 3.8516c-2.0742 2.9648-1.9258 6.8906 0.29688 9.5586 3.0391 3.7773 6.5195 7.1875 10.371 10.223 2.7422 2.0742 6.668 2.1484 9.5586 0.074218l3.2617-2.3711c0.74219-0.59375 1.7773-0.59375 2.7422-0.074218 2.7422 1.4805 5.7773 2.7422 8.9648 3.7773 0.89063 0.29687 1.6289 1.0391 1.7773 1.9258l0.59375 3.7773c0.59375 3.5547 3.5547 6.2969 7.1875 6.668 2.2969 0.22266 4.5938 0.37109 6.9648 0.37109s4.7422-0.14844 7.0391-0.37109c3.6289-0.37109 6.5938-3.1133 7.1875-6.668l0.59375-3.7773c0.14844-0.89062 0.89063-1.6289 1.8516-1.9258 3.1133-1.0391 6.1484-2.2969 8.8906-3.7773 0.96484-0.51953 2-0.51953 2.7422 0.074218l3.2617 2.3711c2.8906 2.0742 6.8164 2 9.5586-0.14844 3.7773-2.9648 7.3359-6.3711 10.371-10.078 2.2227-2.7422 2.3711-6.668 0.29688-9.6328l-2.668-3.8516c-0.51953-0.74219-0.51953-1.7031-0.074219-2.5938 1.5547-2.9648 2.8164-6.1484 3.8516-9.4102 0.22266-0.96484 1.0391-1.6289 1.9258-1.8516l4.8906-0.81641c3.5547-0.59375 6.2227-3.5547 6.5938-7.1875 0.29688-2.2969 0.37109-4.5938 0.37109-6.9648s-0.14844-4.7422-0.37109-7.0391c-0.37109-3.625-3.1133-6.5156-6.5938-7.1836m-37.637 30.379c-0.14844 0.22266-0.37109 0.44531-0.51953 0.66797-3.4102 4.2969-8 7.5586-13.336 9.1875-0.51953 0.22266-1.0352 0.37109-1.5547 0.51953-1.332 0.29688-2.5938 0.51953-3.9258 0.66797l-0.22656-0.003907c-0.22266 0-0.37109 0.074219-0.59375 0.074219-0.59375 0-1.2578 0.074219-1.9258 0.074219-0.59375 0-1.2578-0.074219-1.8516-0.074219-0.22266 0-0.37109-0.074219-0.59375-0.074219h-0.22266c-0.29688-0.074218-0.59375-0.074218-0.89062-0.14844-0.14844 0-0.37109 0-0.59375-0.074219-0.29688 0-0.66797-0.074218-1.0391-0.14844-0.44531-0.074219-0.89062-0.22266-1.332-0.29688-0.51953-0.14844-1.1094-0.29688-1.6289-0.44531-4.668-1.4805-8.8164-4.1484-12.078-7.707l-0.81641-0.96484c-0.29688-0.37109-0.66797-0.81641-0.96484-1.2578-3.3359-4.5195-5.3359-10.074-5.3359-16.152 0-15.188 12.227-27.414 27.34-27.414 15.113 0 27.414 12.227 27.414 27.414 0.007812 6.0781-1.9922 11.637-5.3242 16.156"/>
        <path d="m374.69 335.1h-116.01c-1.5352 0-2.7773 1.2461-2.7773 2.7773 0 1.5352 1.2461 2.7773 2.7773 2.7773h116.01c1.5352 0 2.7773-1.2461 2.7773-2.7773s-1.2422-2.7773-2.7773-2.7773"/>
        <path d="m374.69 363.86h-116.01c-1.5352 0-2.7773 1.2461-2.7773 2.7773 0 1.5352 1.2461 2.7773 2.7773 2.7773h116.01c1.5352 0 2.7773-1.2461 2.7773-2.7773 0-1.5352-1.2422-2.7773-2.7773-2.7773"/>
        <path d="m374.69 392.61h-116.01c-1.5352 0-2.7773 1.2461-2.7773 2.7773 0 1.5352 1.2461 2.7773 2.7773 2.7773h116.01c1.5352 0 2.7773-1.2461 2.7773-2.7773s-1.2422-2.7773-2.7773-2.7773"/>
        <path d="m374.69 421.38h-116.01c-1.5352 0-2.7773 1.2461-2.7773 2.7773 0 1.5352 1.2461 2.7773 2.7773 2.7773h116.01c1.5352 0 2.7773-1.2461 2.7773-2.7773s-1.2422-2.7773-2.7773-2.7773"/>
        <path d="m374.69 450.14h-116.01c-1.5352 0-2.7773 1.2461-2.7773 2.7773 0 1.5352 1.2461 2.7773 2.7773 2.7773h116.01c1.5352 0 2.7773-1.2461 2.7773-2.7773 0-1.5352-1.2422-2.7773-2.7773-2.7773"/>
    </g>
</svg>